PathFileType	4	(X/Y/Z)	Patient4_TMGait_0pt7_02_right_08.trc.trc
DataRate	CameraRate	NumFrames	NumMarkers	Units	OrigDataRate	OrigDataStartFrame	OrigNumFrames
85.889570552147	85.889570552147	4	33	mm	85.889570552147	1	       141
Frame#	Time	Sacral			L.Shoulder			Chest			R.Shoulder			Neck			R.ASIS			L.ASIS			R.Thigh.Superior			R.Thigh.Lateral			R.Thigh.Inferior			R.Patella			L.Thigh.Superior			L.Thigh.Lateral			L.Thigh.Inferior			L.Patella			L.Shank.Superior			L.Shank.Lateral			L.Shank.Inferior			R.Shank.Superior			R.Shank.Lateral			R.Shank.Inferior			R.Heel			R.Midfoot.Superior			R.Midfoot.Lateral			R.Toe			L.Heel			L.Midfoot.Lateral			L.Midfoot.Superior			L.Toe			L.Elbow			L.Wrist			R.Elbow			R.Wrist			
		X1	Y1	Z1	X2	Y2	Z2	X3	Y3	Z3	X4	Y4	Z4	X5	Y5	Z5	X6	Y6	Z6	X7	Y7	Z7	X8	Y8	Z8	X9	Y9	Z9	X10	Y10	Z10	X11	Y11	Z11	X12	Y12	Z12	X13	Y13	Z13	X14	Y14	Z14	X15	Y15	Z15	X16	Y16	Z16	X17	Y17	Z17	X18	Y18	Z18	X19	Y19	Z19	X20	Y20	Z20	X21	Y21	Z21	X22	Y22	Z22	X23	Y23	Z23	X24	Y24	Z24	X25	Y25	Z25	X26	Y26	Z26	X27	Y27	Z27	X28	Y28	Z28	X29	Y29	Z29	X30	Y30	Z30	X31	Y31	Z31	X32	Y32	Z32	X33	Y33	Z33	

1	8.190000000000	773.049020105617	1015.615816783330	444.339044471620	977.776459702071	1432.837126118568	258.265648659864	1075.848839739524	1359.490082383220	422.545193602561	992.028259114584	1446.017281721197	591.456683072287	982.000280453192	1495.787553710043	411.150982883293	993.516872809009	947.856565396114	565.734565981995	989.402458130329	960.569261302226	293.582703599336	1074.670474962895	777.200219397519	546.904149356763	1030.715003546124	659.446083003077	624.972569777337	1124.290071439243	617.021649745444	551.302000846306	1139.474268355508	501.520305830557	577.879567264962	1037.713218218090	753.627230221232	319.249536544768	948.439105361438	638.545229049637	263.094687132382	1034.580407534561	560.904953491574	325.303977454212	1035.455241407221	491.093748277686	335.531792609077	1008.208419486104	419.377118412304	328.512693418115	918.943563054816	304.979193991822	277.125441312336	969.103049420594	194.192174281082	350.205775835081	1056.567512256699	431.857621373753	583.059557722885	928.348564484587	405.567774079135	636.185239258047	907.105215564149	296.834596182902	590.185938914357	705.685389872118	258.081184465454	549.758419331259	861.187368032116	177.786991040779	605.680347893941	749.917565600150	192.279790133146	628.170925611694	905.581734563484	56.307117977308	636.067768932558	840.183609527616	38.876448477133	392.056123984905	915.742132315735	35.530863366660	312.599841129533	998.174384191760	96.134992987001	340.809943644374	1127.663285508805	42.991357005157	315.766256387408	946.712026498251	1084.318247831113	135.742222075181	1099.150964126174	870.902086518392	140.904725399394	944.944970252206	1106.038865501987	715.923798650221	1170.373764720678	993.955871154442	665.353560093921	
2	8.201642857143	771.720177926445	1015.667226659389	443.350588803389	978.659981116685	1433.003910563833	258.078340857498	1075.207644319796	1359.443559825292	423.145851821683	990.487099781041	1446.085818084380	591.720008209323	981.562154759469	1495.915444000480	410.874201233169	992.123855014531	948.309291403948	566.246524601346	988.532779674126	961.079629653120	293.392665007658	1075.726886101685	781.060748584087	546.582771926525	1034.643257458384	662.626810784746	624.822112361039	1128.819818815251	622.094808815422	551.012631136439	1147.065298119168	507.490206419404	577.613050752430	1034.347644568928	752.691529419526	319.218827677795	943.835650714483	638.624074842845	262.646343470620	1028.733631281910	559.961445871339	324.928678069514	1028.668317842971	490.335989537534	335.233343533776	1001.270193320668	418.965972704592	328.190754230022	911.418145418688	304.957771693463	276.928633908566	961.043574551697	193.994854132594	350.061896373667	1066.589243219490	435.442468395685	583.055144596573	940.014835721134	404.520792491100	637.145506780433	922.484986186707	295.164011124307	591.024964923439	722.628332092379	248.920098972913	552.298896660924	881.352066921417	174.549674257797	606.423913380084	769.954834754114	184.670853065570	630.019204723957	930.509247961144	54.934938836652	635.830006885628	831.515035404863	38.875787949888	392.066602137097	907.137500800334	35.534344236059	312.592701860392	989.572614093628	96.051889317529	340.792564383624	1119.073190802170	42.874174022616	315.730420057042	954.546718145889	1085.311273602271	133.406572668969	1118.100194719776	882.164621185001	139.802178362848	938.184820295583	1106.098561523202	714.992739133014	1150.505917441173	972.971457817253	671.631430675499	
3	8.213285714286	770.426322498348	1015.706206023909	442.397112421309	979.534226370897	1433.162889313155	257.922949109714	1074.582799168216	1359.383293344353	423.760602262047	988.981733391416	1446.127369274355	592.006172228878	981.127851696613	1496.029418069273	410.634341126213	990.744273502931	948.742598049661	566.727882773508	987.677756827679	961.531560064565	293.231150973966	1076.731060121011	784.820938763447	546.279337057748	1038.439425975443	665.731765486644	624.687142720259	1133.186412247596	627.042086572589	550.736144320823	1154.414790945759	513.355459892074	577.367705282742	1031.055059626763	751.764895121264	319.228506997530	939.333008315050	638.689202902667	262.225775507190	1022.990366761093	559.023365993943	324.588966822408	1021.982860378543	489.579745676695	334.979302866945	994.446026700207	418.546548799023	327.900971105523	904.019201146791	304.931734323189	276.743388897010	953.086493206836	193.791673500191	349.935583809464	1076.406007398512	438.945105566513	583.079161773468	951.518484274475	403.358308298186	638.120257708938	937.748109194904	293.385965188493	591.899753741322	739.507344140884	239.602188404803	554.856638620609	901.436984411399	171.213676296030	607.219937144295	789.929482800780	176.952728927231	631.895609295122	955.371657797430	53.508309038529	635.688771048307	822.954799153996	38.875351247470	392.076149922315	898.635837624976	35.535625605792	312.587506310412	981.074531743173	95.970433031077	340.779846318343	1110.586430047885	42.757475436383	315.698079211407	962.249813508897	1086.322473878753	131.128999842353	1136.678252076087	893.424358101337	138.787663707525	931.638938015432	1106.109760546733	714.152213647212	1130.491184533256	952.453787969710	677.890238534162	
4	8.224928571429	769.204875710319	1015.720686149492	441.511122167127	980.396268315493	1433.305444191079	257.848457932077	1073.994861590015	1359.290672796970	424.415991103308	987.546748801580	1446.104084897651	592.347741034605	980.710521383680	1496.109675247285	410.486280282305	989.393495105540	949.121637337690	567.163301129236	986.865763231041	961.874958382024	293.129005584785	1077.607579749713	788.345988449750	546.019647364280	1041.937808400015	668.649561593809	624.596038893760	1137.191951569317	631.696043743990	550.497582778163	1161.257474340425	518.995273973211	577.173340028314	1027.879487313140	750.840735541281	319.316475069490	934.967083887504	638.733889376780	261.859020372672	1017.367946523146	558.088151442175	324.315570985177	1015.408812024799	488.825561367458	334.803381143530	987.752717560120	418.116802141600	327.667267582178	896.774996654211	304.900173198009	276.578142151785	945.246682561141	193.581449777907	349.840329159943	1085.831276560510	442.275732671328	583.169421225328	962.786155390091	401.919232752647	639.142351489710	952.926948351178	291.388243701987	592.857213136720	756.535303854437	229.878260308921	557.460310313110	921.594482619802	167.712709195315	608.135333834858	810.060912200364	168.982328167568	633.841417473430	980.370515301898	52.093992965499	635.752210881455	814.523391076037	38.877464382265	392.083095930879	890.253577545781	35.533856501865	312.585699950715	972.698769936982	95.893061441962	340.774485226570	1102.219803402369	42.641962420941	315.671997389352	969.729019465549	1087.387902366584	128.959574597068	1154.582534459392	904.807940871796	137.969719230567	925.394967911208	1106.061879512063	713.491667082173	1110.016356267548	932.910083017696	684.144896565354	
